<svg version="1.0" xmlns="http://www.w3.org/2000/svg" width="40" height="100" viewBox="0 0 1000 1000" preserveAspectRatio="xMidYMid meet">
  <path d="M987 545c-6-40-20-79-42-114-19-30-43-58-73-81h1L566 114l-1-1c-10-7-24-12-39-12s-29 5-41 13c-11 8-18 19-19 31 0 11 5 22 15 30l59 47 59 47H223c-43 0-73 20-79 54-2 15 2 31 13 44s27 20 45 20h186L46 640l-1 1a86 86 0 0 0-35 56c-2 16 2 30 11 42 11 14 28 22 48 22s40-8 56-21l185-151-2 26a301 301 0 0 0 76 171c31 34 70 62 114 82 47 20 97 31 149 31h1c52 0 103-11 150-32 44-20 82-47 114-82a304 304 0 0 0 77-177c2-21 1-42-2-63zM651 745c-115 0-209-84-209-187s94-187 209-187c116 0 209 84 209 187s-93 187-209 187zm121-204c1 31-11 60-33 81-22 22-53 35-88 35s-66-13-88-35c-22-21-34-50-33-81 2-30 17-56 39-75 21-18 50-29 82-29s61 11 82 29c22 19 37 46 39 75z"/>
</svg>
