<svg version="1" width="120" height="40" viewBox="0 0 361.3 92.7" xmlns="http://www.w3.org/2000/svg">
<style>.a{fill:#333;}</style>
<path d="M93.7 71.7c-1.2 0-2.4-0.8-2.8-2 -0.5-1.5 0.3-3.2 1.9-3.7 5.6-1.8 9.2-6.8 9.2-12.5 0-7.3-6-13.3-13.3-13.3 -0.5 0-1.1 0-1.7 0.1l-2.9 0.4 -0.4-2.9c-1.8-12.4-12.5-21.7-25-21.7 -10.3 0-19.5 6.2-23.4 15.8l-0.7 1.8 -1.9 0c-8.9 0.2-16.2 7.6-16.2 16.5 0 6.5 3.8 12.5 9.6 15.1 1.5 0.7 2.1 2.4 1.5 3.9 -0.7 1.5-2.4 2.1-3.9 1.5 -8-3.6-13.1-11.7-13.1-20.5 0-11.5 8.8-21.1 20.1-22.3 5.2-10.8 16-17.7 28.1-17.7 14.5 0 27.1 10.2 30.4 24.1 10.4 0.2 18.9 8.7 18.9 19.2 0 8.3-5.3 15.5-13.3 18.1C94.3 71.6 94 71.7 93.7 71.7z" class="a"/>
<path d="M48.6 73c0 0 0 0 0 0 0 0 0 0 0 0h0c0 0 0 0 0 0l0 0c0 0 0 0 0 0h0l0 0c0 0 0 0 0 0 0 0 0 0 0 0h0c0 0 0 0 0 0 0 0 0 0 0 0s0 0 0 0l0 0c0 0 0 0 0 0s0 0 0 0c0 0 0 0 0 0 0 0 0 0 0 0 0 0 0 0 0 0l0 0c0 0 0 0 0 0 0 0 0 0 0 0 0 0 0 0 0 0s0 0 0 0c0 0 0 0 0 0 0 0 0 0 0 0 0 0 0 0 0 0 0 0 0 0 0 0 0 0 0 0 0 0l0 0c0 0 0 0 0 0 0 0 0 0 0 0 0 0-0.1 0-0.1 0h0c0 0 0 0 0 0h0c0 0 0 0 0 0h0 0l0 0c0 0 0 0 0 0h0 0c0 0 0 0 0 0h0c0 0 0 0 0 0h0c0 0 0 0 0 0 0 0 0 0 0 0h0c0 0 0 0 0 0h0 0c0 0 0 0 0 0h0c0 0 0 0 0 0 -1.3 0-2.3-1-2.3-2.3V44.7h2c0 0 0 0 0 0 0.3 0 0.5-0.2 0.5-0.5 0-0.2-0.1-0.4-0.3-0.5l-9.6-6.6c-0.2-0.1-0.4-0.1-0.6 0l-9.6 6.6c-0.2 0.1-0.3 0.4-0.2 0.6 0.1 0.2 0.3 0.4 0.5 0.4h2l0 26c0 1.8 1.5 3.3 3.3 3.3 0 0 0 0 0.1 0H48.4c0 0 0 0 0 0 0.1 0 0.3-0.1 0.3-0.1 0 0 0 0 0 0 0 0 0 0 0 0 0 0 0 0 0 0 0 0 0 0 0 0l0 0 0 0 0 0 0 0c0 0 0 0 0 0 0 0 0 0 0 0 0 0 0 0 0 0l0 0c0 0 0 0 0 0 0.1-0.1 0.1-0.2 0.1-0.3v0c0 0 0 0 0 0 0 0 0 0 0 0v0 0 0c0 0 0 0 0 0V73.5C48.9 73.3 48.8 73.1 48.6 73z" class="a"/>
<path d="M69.3 73C69.3 73 69.3 73 69.3 73c0 0 0 0 0 0h0c0 0 0 0 0 0l0 0c0 0 0 0 0 0h0l0 0c0 0 0 0 0 0 0 0 0 0 0 0h0c0 0 0 0 0 0 0 0 0 0 0 0 0 0 0 0 0 0l0 0h0c0 0 0 0 0 0s0 0 0 0c0 0 0 0 0 0 0 0 0 0 0 0 0 0 0 0 0 0 0 0 0 0 0 0l0 0c0 0 0 0 0 0s0 0 0 0c0 0 0 0 0 0 0 0 0 0 0 0l0 0c0 0 0 0 0 0 0 0 0 0 0 0 0 0 0 0 0 0l0 0h0c0 0-0.1 0-0.1 0 0 0 0 0 0 0h0c0 0 0 0 0 0h0H69.1h0l0 0c0 0 0 0 0 0h0 0c0 0 0 0 0 0h0c0 0 0 0 0 0 0 0 0 0 0 0h0 0 0c0 0 0 0 0 0h0c0 0 0 0 0 0 0 0 0 0 0 0h0c0 0 0 0 0 0 -1.3 0-2.3-1-2.3-2.3V50.5h2c0 0 0 0 0 0 0.3 0 0.5-0.2 0.5-0.5 0-0.2-0.1-0.4-0.3-0.5l-9.6-6.6c-0.2-0.1-0.4-0.1-0.6 0l-9.6 6.6c-0.2 0.1-0.3 0.4-0.2 0.6 0.1 0.2 0.3 0.4 0.5 0.4h2l0 20.2c0 1.8 1.5 3.3 3.3 3.3 0 0 0 0 0.1 0h14.3c0 0 0 0 0 0 0.1 0 0.3-0.1 0.3-0.1 0 0 0 0 0 0 0 0 0 0 0 0 0 0 0 0 0 0 0 0 0 0 0 0l0 0 0 0c0 0 0 0 0 0l0 0 0 0c0 0 0 0 0 0 0 0 0 0 0 0 0 0 0 0 0 0 0 0 0 0 0 0 0.1-0.1 0.1-0.2 0.1-0.3v0c0 0 0 0 0 0 0 0 0 0 0 0v0 0 0c0 0 0 0 0 0V73.5C69.6 73.3 69.4 73.1 69.3 73z" class="a"/>
<path d="M89.9 73C89.9 73 89.9 73 89.9 73c0 0 0 0 0 0l0 0c0 0 0 0 0 0l0 0c0 0 0 0 0 0 0 0 0 0 0 0 0 0 0 0 0 0l0 0c0 0 0 0 0 0h0c0 0 0 0 0 0 0 0 0 0 0 0 0 0 0 0 0 0l0 0h0c0 0 0 0 0 0l0 0c0 0 0 0 0 0 0 0 0 0 0 0 0 0 0 0 0 0 0 0 0 0 0 0l0 0c0 0 0 0 0 0s0 0 0 0c0 0 0 0 0 0 0 0 0 0 0 0l0 0c0 0 0 0 0 0 0 0 0 0 0 0 0 0 0 0 0 0l0 0h0c0 0-0.1 0-0.1 0 0 0 0 0 0 0h0c0 0 0 0 0 0h0H89.7h0c0 0 0 0 0 0h0c0 0 0 0 0 0h0c0 0 0 0 0 0h0c0 0 0 0 0 0 0 0 0 0 0 0h0 0 0c0 0 0 0 0 0h0c0 0 0 0 0 0 0 0 0 0 0 0h0c0 0 0 0 0 0 -1.3 0-2.3-1-2.3-2.3V56.3h2c0 0 0 0 0 0 0.3 0 0.5-0.2 0.5-0.5 0-0.2-0.1-0.4-0.3-0.5l-9.6-6.6c-0.2-0.1-0.4-0.1-0.6 0l-9.6 6.6c-0.2 0.1-0.3 0.4-0.2 0.6 0.1 0.2 0.3 0.4 0.5 0.4h2l0 14.4c0 1.8 1.5 3.3 3.3 3.3 0 0 0 0 0.1 0h14.3c0 0 0 0 0 0 0.1 0 0.3-0.1 0.3-0.1 0 0 0 0 0 0 0 0 0 0 0 0 0 0 0 0 0 0 0 0 0 0 0 0l0 0 0 0 0 0 0 0c0 0 0 0 0 0 0 0 0 0 0 0 0 0 0 0 0 0 0 0 0 0 0 0 0 0 0 0 0 0 0.1-0.1 0.1-0.2 0.1-0.3v0c0 0 0 0 0 0 0 0 0 0 0 0v0 0 0c0 0 0 0 0 0V73.5C90.2 73.3 90.1 73.1 89.9 73z" class="a"/>
<path d="M182.6 51c-1-1.1-2.3-2-3.9-2.6 -1.6-0.6-3.4-1-5.4-1 -2 0-3.8 0.3-5.4 1 -1.5 0.6-2.8 1.5-3.9 2.6 -1.1 1.2-1.8 2.5-2.4 4 -0.5 1.5-0.8 3.2-0.8 5 0 1.4 0.1 2.7 0.4 3.9 0.3 1.2 0.7 2.4 1.3 3.5 0.6 1 1.4 2 2.3 2.7 0.9 0.8 2.1 1.4 3.5 1.8 1.4 0.4 3 0.7 4.8 0.7 1.8 0 3.5-0.2 4.8-0.7 1.4-0.4 2.5-1 3.5-1.8 0.9-0.8 1.7-1.7 2.3-2.7 0.6-1.1 1-2.2 1.3-3.5 0.3-1.2 0.4-2.5 0.4-3.9 0-1.8-0.3-3.5-0.8-5C184.4 53.5 183.7 52.2 182.6 51zM179.4 63.2c-0.2 1-0.6 1.9-1.1 2.7 -0.5 0.8-1.2 1.4-2 1.9 -0.8 0.5-1.8 0.7-2.9 0.7 -1.1 0-2.1-0.2-2.9-0.7 -0.8-0.5-1.5-1.1-2-1.9 -0.5-0.8-0.9-1.7-1.1-2.7 -0.2-1-0.4-2-0.4-3.2 0-1.2 0.1-2.3 0.4-3.3 0.2-1 0.6-1.9 1.2-2.7 0.5-0.8 1.2-1.4 2-1.8 0.8-0.4 1.8-0.6 2.9-0.7h0c1.1 0 2.1 0.2 2.9 0.7 0.8 0.4 1.5 1 2 1.8 0.5 0.8 0.9 1.7 1.2 2.7 0.2 1 0.4 2.1 0.4 3.3C179.8 61.1 179.7 62.2 179.4 63.2z" class="a"/>
<path d="M201.3 72.1c1-0.4 1.9-0.9 2.6-1.5 0.8-0.6 1.5-1.4 2.1-2.2l0.1-0.2h0.7l0.1 0.5v0.9c0 0.6 0.1 1.2 0.3 1.7 0.2 0.4 0.5 0.7 0.8 1 0.4 0.2 0.9 0.4 1.5 0.4 0.6 0 1.1-0.1 1.5-0.4 0.4-0.2 0.7-0.6 0.8-1 0.2-0.5 0.3-1 0.3-1.6V50.4c0-0.6-0.1-1.1-0.3-1.6 -0.2-0.4-0.4-0.8-0.9-1 -0.4-0.3-1.1-0.4-1.9-0.4 -0.8 0-1.4 0.1-1.8 0.4 -0.4 0.3-0.7 0.6-0.9 1 -0.2 0.5-0.3 1-0.3 1.6v11.5c0 1-0.2 1.8-0.5 2.5 -0.3 0.7-0.8 1.4-1.4 1.9 -0.6 0.5-1.2 0.9-1.9 1.2 -0.7 0.3-1.4 0.4-2 0.4 -1.1 0-2-0.2-2.7-0.7 -0.7-0.5-1.3-1.1-1.6-1.9 -0.3-0.8-0.5-1.7-0.5-2.7V50.4c0-0.6-0.1-1.1-0.3-1.6 -0.2-0.4-0.5-0.8-0.9-1 -0.4-0.3-1.1-0.4-1.9-0.4 -0.8 0-1.4 0.1-1.9 0.4 -0.4 0.3-0.7 0.6-0.9 1 -0.2 0.5-0.3 1-0.3 1.5v13.6c0 1.7 0.3 3.1 0.7 4.2 0.5 1.1 1.1 2 1.9 2.6 0.8 0.7 1.7 1.1 2.7 1.4 1 0.3 1.9 0.4 2.9 0.4l0.1 0C199.1 72.6 200.3 72.5 201.3 72.1z" class="a"/>
<path d="M155.4 38.4c-0.5-0.2-1-0.3-1.6-0.3 -0.6 0-1.2 0.1-1.6 0.3 -0.4 0.2-0.8 0.5-1 1 -0.2 0.4-0.4 1-0.4 1.7v28.6c0 0.7 0.1 1.3 0.4 1.7 0.2 0.4 0.6 0.7 1 1 0.5 0.2 1 0.3 1.6 0.3 0.6 0 1.2-0.1 1.6-0.3 0.4-0.2 0.8-0.5 1-1 0.2-0.4 0.4-1 0.4-1.7V41c0-0.7-0.1-1.2-0.4-1.7C156.1 38.9 155.8 38.6 155.4 38.4z" class="a"/>
<path d="M351.2 49.4c-0.1-0.3-0.3-0.6-0.5-0.9 -0.2-0.3-0.5-0.5-0.9-0.7 -0.4-0.2-0.9-0.3-1.5-0.3 -0.5 0-1 0.1-1.3 0.3 -0.4 0.2-0.7 0.5-0.9 0.9 -0.3 0.4-0.4 0.9-0.6 1.5l-4.3 16.2h-0.7l-0.2-0.4 -4.5-16.3c-0.2-0.7-0.5-1.2-1.1-1.6 -0.5-0.4-1.2-0.6-2-0.6 -0.5 0-1 0.1-1.5 0.4 -0.4 0.3-0.8 0.6-1 1 -0.3 0.4-0.4 0.9-0.4 1.5 0 0.2 0 0.5 0.1 0.7 0.1 0.3 0.2 0.6 0.3 1 0.1 0.4 0.3 0.9 0.5 1.4l7.3 20.8 0 0.1c-0.2 0.8-0.4 1.3-0.8 1.7 -0.3 0.4-0.7 0.6-1.1 0.7 -0.3 0.1-0.6 0.1-0.9 0.1l-0.2 0 -0.7 0c-0.6 0-1 0.1-1.5 0.3 -0.4 0.2-0.7 0.4-0.9 0.8 -0.2 0.3-0.3 0.8-0.3 1.3 0 0.5 0.1 0.9 0.4 1.3 0.3 0.4 0.7 0.7 1.2 1 0.6 0.3 1.4 0.4 2.3 0.4 1 0 1.9-0.1 2.7-0.4 0.8-0.3 1.4-0.7 2-1.3 0.6-0.6 1.1-1.3 1.6-2.1 0.5-0.9 0.9-1.9 1.3-3.1l8.1-22.9c0.2-0.4 0.3-0.8 0.4-1.2 0.1-0.3 0.1-0.6 0.1-0.8C351.3 50 351.3 49.7 351.2 49.4z" class="a"/>
<path d="M306.4 68.9c-0.1-0.3-0.2-0.8-0.3-1.3 -0.1-0.5-0.1-1.1-0.1-1.9V54.1c0-1.2-0.3-2.2-0.8-3 -0.5-0.8-1.2-1.5-2.2-2.1 -0.9-0.6-2.1-1-3.4-1.2 -1.3-0.3-2.8-0.4-4.5-0.4 -0.2 0-0.4 0-0.7 0l-0.2 0c-0.7 0-1.3 0.1-1.8 0.2l-0.3 0c-0.7 0.1-1.2 0.2-1.7 0.4 -1.3 0.4-2.4 0.9-3.3 1.4 -0.9 0.6-1.6 1.2-2 1.9 -0.4 0.7-0.6 1.3-0.6 1.9 0 0.4 0.1 0.8 0.3 1.1 0.2 0.3 0.5 0.6 0.9 0.8 0.4 0.2 0.8 0.3 1.3 0.3 0.4 0 0.8-0.1 1.1-0.3 0.3-0.2 0.7-0.5 1.1-0.9 0.4-0.4 0.8-0.8 1.3-1.2 0.5-0.4 1.1-0.7 1.9-1 0.3-0.1 0.7-0.2 1.1-0.3 0.1 0 0.2 0 0.3 0l0.1 0c0.4 0 0.7-0.1 1.2-0.1 0.8 0 1.6 0.1 2.3 0.3 0.7 0.2 1.4 0.6 1.8 1.1 0.5 0.5 0.7 1.2 0.8 2 0 0.8-0.2 1.4-0.5 1.8 -0.3 0.4-0.8 0.7-1.3 0.9 -0.5 0.2-1 0.3-1.6 0.3l-4.2 0.5c-1.3 0.1-2.5 0.4-3.7 0.7 -1.1 0.3-2.1 0.8-2.9 1.3 -0.8 0.6-1.5 1.3-1.9 2.2 -0.5 0.9-0.7 2-0.7 3.4 0 1 0.2 1.9 0.6 2.7 0.4 0.8 0.9 1.5 1.6 2.1 0.7 0.6 1.5 1 2.4 1.3 0.9 0.3 1.8 0.5 2.7 0.5l0.1 0c1.1 0 2.2-0.1 3.3-0.4 0.2 0 0.4-0.1 0.6-0.2 0.1 0 0.3-0.1 0.4-0.2l0.4-0.1c0.1 0 0.2-0.1 0.3-0.1 0.5-0.2 1-0.4 1.4-0.7 1-0.6 1.9-1.3 2.8-2.3l0.8-0.9 0 1.2c0 0.6 0.2 1.3 0.4 1.8 0.2 0.5 0.6 0.9 1.1 1.3 0.5 0.3 1.2 0.5 2.1 0.5 0.5 0 0.9-0.1 1.3-0.3 0.4-0.2 0.7-0.4 1-0.8 0.2-0.3 0.3-0.7 0.4-1.1 0-0.2 0-0.4-0.1-0.7L306.4 68.9zM300 63.5c0 0.7-0.2 1.4-0.5 2.1 -0.3 0.7-0.8 1.2-1.3 1.8 -0.6 0.5-1.3 0.9-2.1 1.2 -0.3 0.1-0.7 0.2-1.2 0.3l-0.2 0c-0.5 0.1-0.9 0.1-1.4 0.1 -0.9 0-1.6-0.2-2.3-0.4 -0.7-0.3-1.2-0.7-1.5-1.2 -0.4-0.5-0.6-1.1-0.6-1.7 0-0.8 0.2-1.5 0.6-2 0.4-0.5 1-1 1.7-1.3 0.7-0.3 1.6-0.5 2.6-0.6l2.5-0.4c0.3 0 0.6-0.1 0.9-0.2 0.3-0.1 0.7-0.2 1-0.3 0.3-0.1 0.6-0.3 0.8-0.5l0.8-0.7V63.5z" class="a"/>
<path d="M129.9 44c1.1-0.5 2.4-0.8 3.7-0.8 1.3 0 2.3 0.2 3.1 0.5 0.8 0.3 1.5 0.7 2.1 1.2 0.5 0.5 1 1 1.4 1.6 0.4 0.5 0.7 1 1.1 1.5 0.3 0.4 0.7 0.8 1.1 1 0.4 0.3 1 0.4 1.6 0.4 1 0 1.8-0.3 2.3-0.8 0.5-0.5 0.8-1.3 0.8-2.2 0-0.6-0.2-1.3-0.5-2 -0.4-0.7-0.9-1.5-1.6-2.3 -0.7-0.8-1.6-1.5-2.7-2.1 -1.1-0.6-2.3-1.1-3.8-1.5 -1.4-0.4-3-0.6-4.8-0.6 -2.1 0-4.1 0.3-5.8 0.9 -1.7 0.6-3.2 1.4-4.6 2.5 -1.3 1.1-2.4 2.4-3.3 3.8 -0.9 1.5-1.6 3.1-2 4.8 -0.4 1.7-0.7 3.6-0.7 5.5 0 3.9 0.7 7.1 2 9.7 1.3 2.6 3.2 4.5 5.6 5.8 2.5 1.3 5.5 2 9 2 1.9 0 3.6-0.3 5.2-0.8 1.6-0.5 3-1.3 4.2-2.2 1.2-0.9 2.1-1.9 2.8-3 0.6-1.1 1-2.2 1-3.4 0-0.5-0.2-1-0.5-1.3 -0.3-0.4-0.7-0.7-1.2-0.9 -0.5-0.2-1.1-0.3-1.7-0.3 -0.5 0-0.9 0.1-1.3 0.4 -0.4 0.3-0.8 0.6-1.1 1.1 -0.4 0.5-0.8 1-1.1 1.6 -0.4 0.6-0.9 1.1-1.4 1.6 -0.5 0.5-1.2 1-2 1.3 -0.8 0.3-1.7 0.5-2.8 0.5 -1.8 0-3.3-0.3-4.5-1 -1.2-0.7-2.3-1.6-3-2.7 -0.8-1.1-1.3-2.4-1.7-3.9 -0.3-1.4-0.5-3-0.5-4.6 0-1.9 0.3-3.6 0.7-5.1 0.5-1.5 1.2-2.8 2-3.8C127.8 45.3 128.8 44.5 129.9 44z" class="a"/>
<path d="M239.8 41c0-0.7-0.1-1.2-0.4-1.7 -0.2-0.4-0.6-0.7-1-1 -0.9-0.4-2.3-0.5-3.2 0 -0.4 0.2-0.8 0.5-1 1 -0.2 0.4-0.4 1-0.4 1.7v9.9h-0.8l-0.2-0.2c-0.6-1-1.5-1.9-2.6-2.4 -0.3-0.1-0.6-0.3-0.9-0.4 -0.1 0-0.1 0-0.2-0.1l-0.1 0c-0.2-0.1-0.5-0.1-0.7-0.2l-0.1 0c-0.1 0-0.2 0-0.3 0l-0.5-0.1c-0.3 0-0.6-0.1-1-0.1 -1.4 0-2.7 0.2-3.8 0.7 -1.1 0.4-2 1-2.9 1.8 -0.8 0.8-1.5 1.7-2 2.7 -0.5 1.1-1 2.2-1.2 3.4 -0.3 1.2-0.4 2.5-0.4 3.8 0 2.2 0.3 4.1 0.9 5.7 0.6 1.6 1.3 2.9 2.3 4 1 1 2.1 1.8 3.3 2.3 1.2 0.5 2.6 0.8 4 0.8 0.5 0 1 0 1.5-0.1 0.5-0.1 1-0.2 1.5-0.3 0.9-0.3 1.7-0.8 2.4-1.4 0.7-0.6 1.2-1.3 1.5-2.3l0.1-0.3h0.8l0.1 0.5v1.1c0 0.9 0.2 1.7 0.7 2.1 0.4 0.5 1.1 0.7 2 0.7 0.9 0 1.6-0.2 2-0.7 0.4-0.5 0.6-1.2 0.6-2.1V41zM233.9 63.1c-0.2 1-0.6 1.8-1 2.6 -0.5 0.8-1.1 1.4-1.9 1.8 -0.2 0.1-0.4 0.2-0.6 0.3 -0.1 0-0.1 0-0.2 0.1l-0.1 0c-0.1 0-0.2 0.1-0.3 0.1 -0.1 0-0.2 0-0.2 0l-0.1 0c-0.2 0-0.3 0.1-0.4 0.1 -0.1 0-0.2 0-0.3 0l-0.2 0c-0.1 0-0.2 0-0.3 0 -1 0-1.9-0.3-2.7-0.7 -0.8-0.4-1.4-1-1.9-1.8 -0.5-0.7-0.9-1.6-1.1-2.5 -0.2-0.9-0.4-1.9-0.4-3 0-0.7 0.1-1.4 0.2-2.1 0.1-0.7 0.3-1.5 0.5-2.2 0.3-0.7 0.6-1.4 1.1-2 0.5-0.6 1.1-1.1 1.8-1.4 0.7-0.4 1.5-0.5 2.5-0.5h0c0.1 0 0.3 0 0.4 0l0.2 0c0.1 0 0.2 0 0.2 0 0.1 0 0.3 0 0.4 0.1l0.2 0c0.1 0 0.1 0 0.2 0 0.1 0 0.3 0.1 0.4 0.1l0.1 0c0.1 0 0.1 0 0.2 0.1 0.2 0.1 0.4 0.2 0.6 0.3 0.8 0.5 1.4 1.2 1.9 2 0.5 0.8 0.8 1.7 1 2.6 0.2 1 0.3 1.9 0.3 2.8C234.2 61.2 234.1 62.1 233.9 63.1z" class="a"/>
<path d="M326.3 52.1c0.3-0.4 0.4-1 0.4-1.8 0-0.6-0.1-1-0.4-1.5 -0.3-0.4-0.7-0.8-1.2-1 -0.5-0.3-1.1-0.4-1.8-0.4 -0.7 0-1.4 0.2-2 0.5 -0.6 0.3-1.1 0.7-1.5 1.2 -0.4 0.5-0.8 1.1-1.1 1.8 -0.3 0.7-0.5 1.4-0.7 2.1l-0.1 0.4h-0.9l-0.1-0.5v-2.7c0-0.6-0.1-1.1-0.4-1.5 -0.2-0.4-0.5-0.7-0.9-0.9 -0.4-0.2-0.9-0.3-1.4-0.3 -0.5 0-1 0.1-1.4 0.3 -0.4 0.2-0.7 0.5-0.9 0.9 -0.2 0.4-0.3 0.9-0.4 1.5v19.5c0 0.6 0.1 1.1 0.3 1.6 0.2 0.4 0.5 0.8 0.9 1 0.4 0.3 1 0.4 1.8 0.4 0.8 0 1.4-0.1 1.9-0.4 0.4-0.3 0.7-0.6 0.9-1 0.2-0.5 0.3-1 0.3-1.5v-8.1c0-2 0.2-3.5 0.5-4.7 0.4-1.2 0.9-2.1 1.6-2.7 0.7-0.5 1.6-0.8 2.6-0.8l1.3 0c0.5 0 1-0.1 1.5-0.3C325.7 52.8 326.1 52.5 326.3 52.1z" class="a"/>
<path d="M276.3 49.2c-0.8-0.7-1.7-1.1-2.7-1.4 -1-0.3-1.9-0.4-2.9-0.4 -1.4 0-2.5 0.2-3.4 0.5 -1 0.4-1.9 0.9-2.6 1.5 -0.8 0.6-1.5 1.4-2.1 2.2l-0.1 0.2h-0.7l-0.1-0.5v-0.9c0-0.6-0.1-1.2-0.3-1.7 -0.2-0.4-0.5-0.7-0.8-1 -0.4-0.2-0.9-0.4-1.5-0.4 -0.6 0-1.1 0.1-1.5 0.4 -0.4 0.2-0.7 0.6-0.8 1 -0.2 0.5-0.3 1-0.3 1.6v19.2c0 0.6 0.1 1.1 0.3 1.6 0.2 0.4 0.5 0.8 0.9 1 0.4 0.3 1.1 0.4 1.9 0.4 0.8 0 1.4-0.1 1.9-0.4 0.4-0.3 0.7-0.6 0.9-1 0.2-0.5 0.3-1 0.3-1.5V58.1c0-1 0.2-1.8 0.5-2.5 0.3-0.7 0.8-1.4 1.4-1.9 0.6-0.5 1.2-0.9 1.9-1.2 0.7-0.3 1.3-0.4 2-0.4 1.1 0 2 0.2 2.7 0.7 0.7 0.5 1.3 1.1 1.6 1.9 0.3 0.8 0.5 1.7 0.5 2.7v12.2c0 0.6 0.1 1.1 0.3 1.6 0.2 0.4 0.5 0.8 0.9 1 0.4 0.3 1.1 0.4 1.8 0.4 0.8 0 1.4-0.1 1.9-0.4 0.4-0.3 0.7-0.6 0.9-1 0.2-0.5 0.3-1 0.3-1.6V56.1c0-1.7-0.3-3.1-0.7-4.2C277.7 50.8 277.1 49.9 276.3 49.2z" class="a"/>
<path d="M249.9 47.8c-0.4-0.3-1.1-0.4-1.9-0.4 -0.8 0-1.4 0.2-1.8 0.4 -0.4 0.3-0.7 0.6-0.9 1 -0.2 0.5-0.3 1-0.3 1.5v19.2c0 0.6 0.1 1.1 0.3 1.6 0.2 0.4 0.5 0.8 0.9 1 0.4 0.3 1 0.4 1.8 0.4 0.8 0 1.4-0.1 1.9-0.4 0.4-0.3 0.7-0.6 0.9-1 0.2-0.5 0.3-1 0.3-1.5V50.4c0-0.6-0.1-1.1-0.3-1.6C250.6 48.4 250.3 48.1 249.9 47.8z" class="a"/>
<path d="M249.6 38.4c-0.5-0.3-1-0.4-1.5-0.4 -0.6 0-1.1 0.1-1.5 0.4 -0.5 0.3-0.8 0.6-1.1 1.1 -0.3 0.5-0.4 1-0.4 1.5 0 0.6 0.1 1.1 0.4 1.5 0.3 0.5 0.6 0.8 1.1 1.1 0.5 0.3 1 0.4 1.5 0.4 0.6 0 1.1-0.1 1.5-0.4 0.5-0.3 0.8-0.6 1.1-1.1 0.3-0.5 0.4-1 0.4-1.5 0-0.6-0.1-1.1-0.4-1.5C250.4 39.1 250 38.7 249.6 38.4z" class="a"/>
</svg>
