<svg xmlns="http://www.w3.org/2000/svg" version="1" width="100" height="131" viewBox="0 0 513 131" preserveAspectRatio="xMidYMid meet">
<g transform="translate(0.000000,131.000000) scale(0.100000,-0.100000)" fill="currentColor" stroke="none">
<path d="M303 1065c-184-57-303-246-273-433 50-302 439-435 651-223 72 71 99 140 99 247l0 74-182-2-183-3 0-50 0-50 128-3c127-3 128-3 121-25-38-127-126-185-263-175-150 11-250 119-251 271-1 228 245 355 433 224l29-19 34 33c19 18 34 38 34 45 0 16-69 62-129 84-60 23-183 26-248 5zM2460 690l0-370 55 0 55 0 0 370 0 370-55 0-55 0 0-370zM3510 948c-84-220-220-589-220-598 0-5 22-10 49-10l49 0 33 95 32 95 142 0 142 0 32-95 33-95 49 0c33 0 49 4 49 13 0 6-56 161-124 342l-124 330-55 3-55 3-32-83zm142-187c26-73 48-135 48-137 0-2-48-4-106-4-81 0-105 3-102 13 3 6 27 74 54 150 27 75 51 131 53 125 2-7 26-73 53-147zM3990 684l0-345 48 3 47 3 3 136 3 137 107 4c95 3 112 7 148 30 53 34 80 73 94 131 16 74-3 139-57 188-57 53-80 59-243 59l-150 0 0-346zm319 226c38-39 48-87 27-132-25-53-60-68-160-68l-86 0 0 115 0 115 94 0c92 0 95-1 125-30zM4540 684l0-345 48 3 47 3 3 343 2 342-50 0-50 0 0-346zM4831 808c-53-26-81-69-81-124 0-68 49-108 170-139 81-21 110-39 110-69 0-48-69-78-134-56-29 9-50 29-81 78-6 9-75-31-75-43 0-25 79-103 117-116 53-17 167-8 200 17 40 30 73 82 73 116 0 41-33 100-67 119-15 9-59 24-98 33-38 9-80 22-92 28-76 38 9 116 98 89 21-6 45-21 53-32 13-19 17-19 55-8 46 14 45 12 29 42-43 82-179 114-277 65zM987 796c-86-32-137-86-163-172-18-60-18-78 2-143 44-149 224-221 363-146 176 96 174 355-3 444-58 29-147 36-199 17zm154-117c40-28 59-69 59-124 0-177-243-193-267-17-7 51 24 119 64 144 39 24 108 23 144-3zM1559 801c-202-40-267-299-109-434 50-43 93-57 170-57 90 1 175 53 217 133 21 41 29 145 14 190-39 116-170 192-292 168zm134-123c106-76 51-268-76-268-84 0-141 59-141 144 0 125 120 193 217 124zM2077 799c-58-17-132-90-156-155-25-65-26-94-6-160 41-139 209-221 321-155 20 12 38 21 39 19 2-2-1-25-5-52-11-71-51-106-122-106-47 0-54 3-90 41l-39 41-45-17c-24-9-44-22-44-29 0-21 49-80 90-107 94-63 248-42 311 43 52 70 53 77 57 361l4 267-55 0c-40 0-56-4-61-15-5-14-10-13-34 5-33 24-112 33-165 19zm147-120c38-30 56-71 56-126 0-88-63-151-141-140-124 16-161 180-61 264 36 31 109 31 146 2zM2772 794c-92-34-152-128-152-239 0-228 270-337 428-172l34 35-44 30-44 30-31-29c-35-30-88-45-127-35-36 9-83 52-71 64 6 6 79 38 163 73 173 71 171 68 114 153-61 91-170 127-270 90zm153-114c10-11 16-22 14-23-11-8-185-77-195-77-21 0-1 52 33 86 29 29 40 34 82 34 35 0 53-5 66-20z"/>
</g>
</svg>