<?xml version="1.0" encoding="UTF-8"?>
<svg width="688px" height="269px" viewBox="0 0 688 269" version="1.1" xmlns="http://www.w3.org/2000/svg" xmlns:xlink="http://www.w3.org/1999/xlink">
    <!-- Generator: Sketch 52.5 (67469) - http://www.bohemiancoding.com/sketch -->
    <title>Group</title>
    <desc>Created with Sketch.</desc>
    <defs>
        <path d="M18.438646,96.2802198 C18.438646,98.8516612 17.5044306,101.002739 15.6359718,102.733516 C13.767513,104.464294 11.6040668,105.32967 9.14556842,105.32967 C6.49039012,105.32967 4.30235934,104.464294 2.58141044,102.733516 C0.860461542,101.002739 0,98.8516612 0,96.2802198 L0,10.532967 C0,7.9615256 0.885046158,5.81044821 2.65516503,4.07967033 C4.42528389,2.34889245 6.68706852,1.48351648 9.44058676,1.48351648 C11.8990852,1.48351648 14.0133621,2.34889245 15.783481,4.07967033 C17.5535999,5.81044821 18.438646,7.9615256 18.438646,10.532967 L18.438646,96.2802198 Z M125.038603,1.48351648 C127.398761,1.48351648 129.316361,2.27471736 130.79146,3.85714286 C132.266559,5.43956835 133.004098,7.41757055 133.004098,9.79120879 L133.004098,96.2802198 C133.004098,98.8516612 132.143636,101.002739 130.422687,102.733516 C128.701738,104.464294 126.562877,105.32967 124.006039,105.32967 C122.629279,105.32967 121.277126,105.107145 119.949536,104.662088 C118.621947,104.217031 117.663147,103.598905 117.073108,102.807692 L62.937243,33.6758242 L62.937243,97.021978 C62.937243,99.3956163 62.1751199,101.373618 60.6508509,102.956044 C59.1265819,104.538469 57.135228,105.32967 54.6767296,105.32967 C52.3165711,105.32967 50.3989711,104.538469 48.923872,102.956044 C47.448773,101.373618 46.7112345,99.3956163 46.7112345,97.021978 L46.7112345,10.532967 C46.7112345,7.9615256 47.571696,5.81044821 49.2926449,4.07967033 C51.0135938,2.34889245 53.1524554,1.48351648 55.7092937,1.48351648 C57.1843928,1.48351648 58.6348851,1.78021681 60.0608142,2.37362637 C61.4867433,2.96703593 62.5438818,3.75823681 63.2322613,4.74725275 L116.925599,73.5824176 L116.925599,9.79120879 C116.925599,7.41757055 117.687722,5.43956835 119.211991,3.85714286 C120.73626,2.27471736 122.678444,1.48351648 125.038603,1.48351648 Z M239.604055,1.48351648 C241.964213,1.48351648 243.881813,2.27471736 245.356912,3.85714286 C246.832011,5.43956835 247.56955,7.41757055 247.56955,9.79120879 L247.56955,96.2802198 C247.56955,98.8516612 246.709088,101.002739 244.988139,102.733516 C243.26719,104.464294 241.128329,105.32967 238.57149,105.32967 C237.194731,105.32967 235.842577,105.107145 234.514988,104.662088 C233.187399,104.217031 232.228599,103.598905 231.638559,102.807692 L177.502695,33.6758242 L177.502695,97.021978 C177.502695,99.3956163 176.740572,101.373618 175.216303,102.956044 C173.692034,104.538469 171.70068,105.32967 169.242181,105.32967 C166.882023,105.32967 164.964423,104.538469 163.489324,102.956044 C162.014225,101.373618 161.276686,99.3956163 161.276686,97.021978 L161.276686,10.532967 C161.276686,7.9615256 162.137148,5.81044821 163.858097,4.07967033 C165.579046,2.34889245 167.717907,1.48351648 170.274746,1.48351648 C171.749845,1.48351648 173.200337,1.78021681 174.626266,2.37362637 C176.052195,2.96703593 177.109334,3.75823681 177.797713,4.74725275 L231.49105,73.5824176 L231.49105,9.79120879 C231.49105,7.41757055 232.253173,5.43956835 233.777442,3.85714286 C235.301711,2.27471736 237.243896,1.48351648 239.604055,1.48351648 Z M370.838042,53.4065934 C370.838042,63.1978512 368.674596,72.1730361 364.347639,80.3324176 C360.020682,88.491799 354.04662,94.9450312 346.425275,99.6923077 C338.80393,104.439584 330.223899,106.813187 320.684925,106.813187 C311.145951,106.813187 302.565921,104.439584 294.944575,99.6923077 C287.32323,94.9450312 281.373753,88.491799 277.095966,80.3324176 C272.818179,72.1730361 270.679317,63.1978512 270.679317,53.4065934 C270.679317,43.6153357 272.818179,34.6401507 277.095966,26.4807692 C281.373753,18.3213878 287.32323,11.8681556 294.944575,7.12087912 C302.565921,2.37360264 311.145951,0 320.684925,0 C330.223899,0 338.80393,2.37360264 346.425275,7.12087912 C354.04662,11.8681556 360.020682,18.3213878 364.347639,26.4807692 C368.674596,34.6401507 370.838042,43.6153357 370.838042,53.4065934 Z M351.661851,53.4065934 C351.661851,46.7801866 350.334281,40.772005 347.679103,35.3818681 C345.023925,29.9917313 341.336232,25.7143015 336.615915,22.5494505 C331.895598,19.3845996 326.585321,17.8021978 320.684925,17.8021978 C314.686189,17.8021978 309.351327,19.3598745 304.68018,22.4752747 C300.009033,25.5906749 296.37051,29.8681047 293.764502,35.3076923 C291.158494,40.7472799 289.855509,46.7801866 289.855509,53.4065934 C289.855509,60.0330002 291.158494,66.0659069 293.764502,71.5054945 C296.37051,76.9450821 300.009033,81.2225119 304.68018,84.3379121 C309.351327,87.4533123 314.686189,89.010989 320.684925,89.010989 C326.585321,89.010989 331.895598,87.4285873 336.615915,84.2637363 C341.336232,81.0988853 345.023925,76.8214555 347.679103,71.4313187 C350.334281,66.0411818 351.661851,60.0330002 351.661851,53.4065934 Z M458.851844,1.48351648 C461.507022,1.48351648 463.670468,2.27471736 465.342247,3.85714286 C467.014026,5.43956835 467.849903,7.51647066 467.849903,10.0879121 C467.849903,12.6593535 467.014026,14.7115308 465.342247,16.2445055 C463.670468,17.7774802 461.507022,18.543956 458.851844,18.543956 L435.692905,18.543956 L435.692905,96.2802198 C435.692905,98.8516612 434.758689,101.002739 432.89023,102.733516 C431.021772,104.464294 428.710818,105.32967 425.957299,105.32967 C423.203781,105.32967 420.941997,104.464294 419.171878,102.733516 C417.401759,101.002739 416.516713,98.8516612 416.516713,96.2802198 L416.516713,18.543956 L393.357773,18.543956 C390.702595,18.543956 388.539149,17.7527552 386.86737,16.1703297 C385.195591,14.5879042 384.359714,12.5110019 384.359714,9.93956044 C384.359714,7.4670206 385.220176,5.43956835 386.941124,3.85714286 C388.662073,2.27471736 390.800935,1.48351648 393.357773,1.48351648 L458.851844,1.48351648 Z M547.89821,88.2692308 C550.455048,88.2692308 552.59391,89.1346067 554.314858,90.8653846 C556.035807,92.5961625 556.896269,94.5988897 556.896269,96.8736264 C556.896269,99.3461662 556.035807,101.373618 554.314858,102.956044 C552.59391,104.538469 550.455048,105.32967 547.89821,105.32967 L498.482638,105.32967 C495.9258,105.32967 493.786938,104.464294 492.06599,102.733516 C490.345041,101.002739 489.484579,98.8516612 489.484579,96.2802198 L489.484579,10.532967 C489.484579,7.9615256 490.345041,5.81044821 492.06599,4.07967033 C493.786938,2.34889245 495.9258,1.48351648 498.482638,1.48351648 L547.89821,1.48351648 C550.455048,1.48351648 552.59391,2.29944239 554.314858,3.93131868 C556.035807,5.56319497 556.896269,7.66482231 556.896269,10.2362637 C556.896269,12.7088036 556.060392,14.7115308 554.388613,16.2445055 C552.716834,17.7774802 550.553388,18.543956 547.89821,18.543956 L507.923225,18.543956 L507.923225,43.7637363 L541.260297,43.7637363 C543.817135,43.7637363 545.955997,44.5796622 547.676946,46.2115385 C549.397895,47.8434148 550.258356,49.9450421 550.258356,52.5164835 C550.258356,54.9890234 549.422479,56.9917506 547.7507,58.5247253 C546.078922,60.0577 543.915475,60.8241758 541.260297,60.8241758 L507.923225,60.8241758 L507.923225,88.2692308 L547.89821,88.2692308 Z M675.591977,109.483516 C677.657116,109.483516 679.574716,110.373617 681.344835,112.153846 C683.114954,113.934075 684,115.912077 684,118.087912 C684,120.956058 682.352831,123.700536 679.058443,126.321429 C675.764055,128.942321 671.732178,131.043948 666.962691,132.626374 C662.193204,134.208799 657.940066,135 654.203148,135 C647.909392,135 642.918715,134.381874 639.230967,133.145604 C635.54322,131.909334 631.830943,130.203308 628.094025,128.027473 C625.635527,126.543949 623.619588,125.480772 622.046149,124.837912 C620.47271,124.195052 618.60428,123.873626 616.440801,123.873626 C615.260722,123.873626 614.277337,124.021977 613.490618,124.318681 C612.703898,124.615386 611.671344,125.060437 610.392925,125.653846 C609.114506,126.346157 607.934444,126.865383 606.852705,127.211538 C605.770966,127.557694 604.394227,127.730769 602.722448,127.730769 C600.36229,127.730769 598.321767,126.815943 596.600818,124.986264 C594.879869,123.156584 594.019407,121.104407 594.019407,118.82967 C594.019407,114.972508 595.740331,112.401105 599.182228,111.115385 L613.785636,105.626374 C606.115121,103.945047 599.329767,100.607168 593.429371,95.6126374 C587.528975,90.6181069 582.956236,84.4615751 579.711018,77.1428571 C576.4658,69.8241392 574.843216,61.9121304 574.843216,53.4065934 C574.843216,43.6153357 576.982077,34.6401507 581.259864,26.4807692 C585.537652,18.3213878 591.487129,11.8681556 599.108474,7.12087912 C606.729819,2.37360264 615.30985,0 624.848824,0 C634.387797,0 642.967828,2.37360264 650.589173,7.12087912 C658.210519,11.8681556 664.18458,18.3213878 668.511537,26.4807692 C672.838495,34.6401507 675.001941,43.6153357 675.001941,53.4065934 C675.001941,61.9121304 673.354772,69.8241392 670.060384,77.1428571 C666.765996,84.4615751 662.144088,90.6181069 656.194522,95.6126374 C650.244956,100.607168 643.435017,103.945047 635.764502,105.626374 L626.766443,109.038462 C629.028261,109.335166 631.117954,109.879117 633.035582,110.67033 C634.953211,111.461542 637.141242,112.549444 639.59974,113.934066 C642.648278,115.615393 645.303417,116.851644 647.565235,117.642857 C649.827054,118.43407 652.383854,118.82967 655.235712,118.82967 C657.694211,118.82967 659.808488,118.458795 661.578606,117.717033 C663.348725,116.975271 665.069648,115.912095 666.741427,114.527473 C667.331467,114.032965 668.216513,113.315939 669.396592,112.376374 C670.576672,111.436808 671.658395,110.719783 672.641794,110.225275 C673.625193,109.730767 674.608578,109.483516 675.591977,109.483516 Z M594.019407,53.4065934 C594.019407,60.0330002 595.322392,66.0659069 597.9284,71.5054945 C600.534409,76.9450821 604.172932,81.2225119 608.844079,84.3379121 C613.515226,87.4533123 618.850087,89.010989 624.848824,89.010989 C630.74922,89.010989 636.059497,87.4285873 640.779814,84.2637363 C645.500131,81.0988853 649.187823,76.8214555 651.843001,71.4313187 C654.49818,66.0411818 655.825749,60.0330002 655.825749,53.4065934 C655.825749,46.7801866 654.49818,40.772005 651.843001,35.3818681 C649.187823,29.9917313 645.500131,25.7143015 640.779814,22.5494505 C636.059497,19.3845996 630.74922,17.8021978 624.848824,17.8021978 C618.850087,17.8021978 613.515226,19.3598745 608.844079,22.4752747 C604.172932,25.5906749 600.534409,29.8681047 597.9284,35.3076923 C595.322392,40.7472799 594.019407,46.7801866 594.019407,53.4065934 Z" id="path-1"></path>
    </defs>
    <g id="Page-1" stroke="none" stroke-width="1" fill="none" fill-rule="evenodd">
        <g id="innoteq-crm" transform="translate(-416.000000, -3.000000)">
            <g id="Group" transform="translate(418.000000, 5.000000)">
                <circle id="customer_head" fill="#712ED1" cx="320.5" cy="54.5" r="18.5"></circle>
                <path d="M254.450826,166.781818 C257.499699,168.363178 259.024113,170.883433 259.024113,174.342657 C259.024113,176.418192 258.286493,178.444279 256.811232,180.420979 C255.23762,182.496514 253.22146,183.534266 250.762691,183.534266 C249.090729,183.534266 247.418791,183.089515 245.746828,182.2 C240.927642,179.926795 235.71513,178.79021 230.109138,178.79021 C223.224585,178.79021 217.22528,180.248004 212.111041,183.163636 C206.996802,186.079269 203.062831,190.180859 200.30901,195.468531 C197.55519,200.756204 196.1783,206.809756 196.1783,213.629371 C196.1783,225.2919 199.300889,234.137499 205.546162,240.166434 C211.791434,246.195368 219.979011,249.20979 230.109138,249.20979 C236.108533,249.20979 241.321045,248.073205 245.746828,245.8 C247.517142,245.00932 249.09073,244.613986 250.467641,244.613986 C253.02476,244.613986 255.188444,245.701155 256.958757,247.875524 C258.434019,249.753389 259.171638,251.779476 259.171638,253.953846 C259.171638,255.535206 258.778241,256.968292 257.991435,258.253147 C257.204629,259.538002 256.073612,260.526337 254.598351,261.218182 C246.926993,265.072747 238.764003,267 230.109138,267 C220.470765,267 211.61933,264.949205 203.554569,260.847552 C195.489808,256.7459 189.04793,250.692348 184.228744,242.686713 C179.409557,234.681079 177,224.995395 177,213.629371 C177,203.548201 179.286621,194.504935 183.85993,186.499301 C188.43324,178.493666 194.752181,172.242447 202.816942,167.745455 C210.881703,163.248462 219.979011,161 230.109138,161 C238.862354,161 246.976169,162.927253 254.450826,166.781818 Z M361.800127,250.988811 C363.078687,251.779491 364.086767,252.817243 364.824398,254.102098 C365.562028,255.386953 365.930838,256.721205 365.930838,258.104895 C365.930838,259.883925 365.340742,261.514678 364.160533,262.997203 C362.685272,264.776233 360.423239,265.665734 357.374366,265.665734 C355.013948,265.665734 352.850264,265.12215 350.883249,264.034965 C343.801995,259.98273 340.261421,251.730132 340.261421,239.276923 C340.261421,235.718863 339.105817,232.902108 336.794575,230.826573 C334.483332,228.751039 331.164044,227.713287 326.836612,227.713287 L299.249365,227.713287 L299.249365,256.474126 C299.249365,259.142671 298.536333,261.317008 297.110247,262.997203 C295.684161,264.677398 293.790938,265.517483 291.43052,265.517483 C288.578348,265.517483 286.095029,264.652689 283.980488,262.923077 C281.865947,261.193465 280.808692,259.043836 280.808692,256.474126 L280.808692,170.784615 C280.808692,168.214906 281.669248,166.065277 283.390386,164.335664 C285.111524,162.606052 287.250621,161.741259 289.807741,161.741259 L332.295051,161.741259 C337.40929,161.741259 342.228404,163.124928 346.752538,165.892308 C351.276673,168.659687 354.891008,172.464778 357.595654,177.307692 C360.300299,182.150607 361.652602,187.58645 361.652602,193.615385 C361.652602,198.557134 360.324887,203.375268 357.669417,208.06993 C355.013946,212.764592 351.571722,216.495557 347.34264,219.262937 C353.538737,223.611677 356.931787,229.442854 357.521891,236.756643 C357.816943,238.338003 357.964467,239.869923 357.964467,241.352448 C358.35787,244.416332 358.751267,246.615378 359.14467,247.94965 C359.538073,249.283923 360.423217,250.296966 361.800127,250.988811 Z M331.557424,212.443357 C333.327737,212.443357 335.04885,211.603272 336.720812,209.923077 C338.392775,208.242882 339.769665,205.99442 340.851523,203.177622 C341.933381,200.360825 342.474302,197.321695 342.474302,194.06014 C342.474302,191.29276 341.933381,188.747797 340.851523,186.425175 C339.769665,184.102552 338.392775,182.249424 336.720812,180.865734 C335.04885,179.482044 333.327737,178.79021 331.557424,178.79021 L299.249365,178.79021 L299.249365,212.443357 L331.557424,212.443357 Z M477.853426,161.593007 C480.312195,161.593007 482.451292,162.4578 484.27078,164.187413 C486.090269,165.917025 487,168.066654 487,170.636364 L487,256.474126 C487,259.043836 486.164031,261.193465 484.492068,262.923077 C482.820106,264.652689 480.607247,265.517483 477.853426,265.517483 C475.099605,265.517483 472.862159,264.677398 471.141021,262.997203 C469.419883,261.317008 468.559327,259.142671 468.559327,256.474126 L468.559327,196.728671 L444.217639,234.088112 C443.234132,235.274132 442.103115,236.237759 440.824555,236.979021 C439.545996,237.720283 438.21828,238.041492 436.84137,237.942657 C435.56281,238.041492 434.28427,237.720283 433.00571,236.979021 C431.72715,236.237759 430.596134,235.274132 429.612626,234.088112 L405.270938,195.394406 L405.270938,256.474126 C405.270938,259.142671 404.484144,261.317008 402.910532,262.997203 C401.33692,264.677398 399.271585,265.517483 396.714466,265.517483 C394.255697,265.517483 392.239537,264.652689 390.665925,262.923077 C389.092313,261.193465 388.305519,259.043836 388.305519,256.474126 L388.305519,170.636364 C388.305519,168.165489 389.21525,166.040568 391.034739,164.261538 C392.854227,162.482509 395.042499,161.593007 397.599618,161.593007 C399.074879,161.593007 400.550118,161.963633 402.02538,162.704895 C403.500641,163.446158 404.631657,164.409784 405.418463,165.595804 L437.578997,215.26014 L470.624683,165.595804 C471.411488,164.409784 472.468743,163.446158 473.796478,162.704895 C475.124213,161.963633 476.476516,161.593007 477.853426,161.593007 Z" id="CRM" fill="#712ED1"></path>
                <mask id="mask-2" fill="white">
                    <use xlink:href="#path-1"></use>
                </mask>
                <use id="INNOTEQ-CRM" stroke="#712ED1" stroke-width="4" fill-opacity="0.15" fill="#712ED1" xlink:href="#path-1"></use>
                <circle id="Oval" fill="#712ED1" mask="url(#mask-2)" cx="320" cy="116" r="43"></circle>
            </g>
        </g>
    </g>
</svg>