<?xml version="1.0" encoding="UTF-8"?>
<svg width="680px" height="333px" viewBox="0 0 680 333" version="1.1" xmlns="http://www.w3.org/2000/svg" xmlns:xlink="http://www.w3.org/1999/xlink">
    <!-- Generator: Sketch 52.5 (67469) - http://www.bohemiancoding.com/sketch -->
    <title>Gradient Logo</title>
    <desc>Created with Sketch.</desc>
    <defs>
        <circle id="path-1" cx="144.21959" cy="144.21959" r="144.21959"></circle>
        <filter x="-15.6%" y="-11.8%" width="126.3%" height="126.3%" filterUnits="objectBoundingBox" id="filter-2">
            <feOffset dx="-7" dy="4" in="SourceAlpha" result="shadowOffsetOuter1"></feOffset>
            <feGaussianBlur stdDeviation="11.5" in="shadowOffsetOuter1" result="shadowBlurOuter1"></feGaussianBlur>
            <feColorMatrix values="0 0 0 0 0   0 0 0 0 0   0 0 0 0 0  0 0 0 0.252349411 0" type="matrix" in="shadowBlurOuter1"></feColorMatrix>
        </filter>
        <polygon id="path-3" points="148.159108 49.9531542 304.955949 238.797362 98.6977643 238.797362"></polygon>
        <filter x="-32.0%" y="-30.7%" width="150.4%" height="155.1%" filterUnits="objectBoundingBox" id="filter-4">
            <feOffset dx="-14" dy="-6" in="SourceAlpha" result="shadowOffsetOuter1"></feOffset>
            <feGaussianBlur stdDeviation="15" in="shadowOffsetOuter1" result="shadowBlurOuter1"></feGaussianBlur>
            <feColorMatrix values="0 0 0 0 0   0 0 0 0 0   0 0 0 0 0  0 0 0 0.307886096 0" type="matrix" in="shadowBlurOuter1"></feColorMatrix>
        </filter>
        <circle id="path-5" cx="87.0818819" cy="210.353375" r="28.2660713"></circle>
        <filter x="-108.8%" y="-73.4%" width="278.7%" height="278.7%" filterUnits="objectBoundingBox" id="filter-6">
            <feOffset dx="-11" dy="9" in="SourceAlpha" result="shadowOffsetOuter1"></feOffset>
            <feGaussianBlur stdDeviation="15" in="shadowOffsetOuter1" result="shadowBlurOuter1"></feGaussianBlur>
            <feColorMatrix values="0 0 0 0 0   0 0 0 0 0   0 0 0 0 0  0 0 0 0.351420969 0" type="matrix" in="shadowBlurOuter1"></feColorMatrix>
        </filter>
        <linearGradient x1="0%" y1="50%" x2="100%" y2="50%" id="linearGradient-7">
            <stop stop-color="#955DB6" offset="0%"></stop>
            <stop stop-color="#EF59BA" offset="100%"></stop>
        </linearGradient>
    </defs>
    <g id="Page-1" stroke="none" stroke-width="1" fill="none" fill-rule="evenodd">
        <g id="ipeedy" transform="translate(-108.000000, -80.000000)">
            <g id="Gradient-Logo" transform="translate(138.000000, 98.000000)">
                <g id="Logo-Fulfill">
                    <g transform="translate(0.000000, 0.187222)">
                        <g id="Oval">
                            <use fill="black" fill-opacity="1" filter="url(#filter-2)" xlink:href="#path-1"></use>
                            <use fill="#AD6CD3" fill-rule="evenodd" xlink:href="#path-1"></use>
                        </g>
                        <g id="Triangle" transform="translate(201.826857, 144.375258) scale(1, -1) translate(-201.826857, -144.375258) ">
                            <use fill="black" fill-opacity="1" filter="url(#filter-4)" xlink:href="#path-3"></use>
                            <use fill="#EF59BA" fill-rule="evenodd" xlink:href="#path-3"></use>
                        </g>
                        <g id="Oval-2">
                            <use fill="black" fill-opacity="1" filter="url(#filter-6)" xlink:href="#path-5"></use>
                            <use fill="#FFAEF3" fill-rule="evenodd" xlink:href="#path-5"></use>
                        </g>
                    </g>
                </g>
                <g id="ipeedy---gradient" transform="translate(338.000000, 102.000000)" fill="url(#linearGradient-7)">
                    <path d="M9.752,66.47 C8.70932812,67.5433387 7.39067464,68.08 5.796,68.08 C4.20132536,68.08 2.88267188,67.5433387 1.84,66.47 C0.79732812,65.3966613 0.276,64.0626746 0.276,62.468 L0.276,24.472 C0.276,22.8773254 0.79732812,21.5433387 1.84,20.47 C2.88267188,19.3966613 4.20132536,18.86 5.796,18.86 C7.39067464,18.86 8.70932812,19.3966613 9.752,20.47 C10.7946719,21.5433387 11.316,22.8773254 11.316,24.472 L11.316,62.468 C11.316,64.0626746 10.7946719,65.3966613 9.752,66.47 Z M1.288,11.868 C0.42932904,11.19333 0,9.99734192 0,8.28 L0,6.532 C0,4.81465808 0.4599954,3.61867004 1.38,2.944 C2.3000046,2.26932996 3.77198988,1.932 5.796,1.932 C7.9426774,1.932 9.44532904,2.26932996 10.304,2.944 C11.162671,3.61867004 11.592,4.81465808 11.592,6.532 L11.592,8.28 C11.592,10.0586756 11.1473378,11.2699968 10.258,11.914 C9.36866222,12.5580032 7.8506774,12.88 5.704,12.88 C3.61865624,12.88 2.14667096,12.54267 1.288,11.868 Z M64.7771996,21.206 C68.2118834,23.3833442 70.9258563,26.4039807 72.9191996,30.268 C74.9125429,34.1320193 75.9091996,38.5173088 75.9091996,43.424 C75.9091996,48.3306912 74.927876,52.7313139 72.9651996,56.626 C71.0025231,60.5206861 68.3192166,63.5566558 64.9151996,65.734 C61.5111825,67.9113442 57.7545534,69 53.6451996,69 C50.7011848,69 47.9258793,68.402006 45.3191996,67.206 C42.7125199,66.009994 40.5505415,64.5533419 38.8331996,62.836 L38.8331996,80.868 C38.8331996,82.4626746 38.3118714,83.7966613 37.2691996,84.87 C36.2265277,85.9433387 34.9078742,86.48 33.3131996,86.48 C31.7185249,86.48 30.3998714,85.9586719 29.3571996,84.916 C28.3145277,83.8733281 27.7931996,82.5240083 27.7931996,80.868 L27.7931996,24.472 C27.7931996,22.8773254 28.3145277,21.5433387 29.3571996,20.47 C30.3998714,19.3966613 31.7185249,18.86 33.3131996,18.86 C34.9078742,18.86 36.2265277,19.3966613 37.2691996,20.47 C38.3118714,21.5433387 38.8331996,22.8773254 38.8331996,24.472 L38.8331996,24.84 C40.3052069,22.9999908 42.359853,21.3900069 44.9971996,20.01 C47.6345461,18.6299931 50.3945185,17.94 53.2771996,17.94 C57.5092207,17.94 61.3425157,19.0286558 64.7771996,21.206 Z M61.5571996,54.464 C64.0718788,51.5199853 65.3291996,47.8400221 65.3291996,43.424 C65.3291996,39.0079779 64.087212,35.3433479 61.6031996,32.43 C59.1191871,29.5166521 55.8838862,28.06 51.8971996,28.06 C47.910513,28.06 44.6598788,29.5166521 42.1451996,32.43 C39.6305203,35.3433479 38.3731996,39.0079779 38.3731996,43.424 C38.3731996,47.8400221 39.6305203,51.5199853 42.1451996,54.464 C44.6598788,57.4080147 47.910513,58.88 51.8971996,58.88 C55.8225525,58.88 59.0425203,57.4080147 61.5571996,54.464 Z M132.682399,45.908 C131.578394,46.8280046 130.290406,47.288 128.818399,47.288 L98.4583991,47.288 C99.1944028,50.9066848 100.881053,53.7433231 103.518399,55.798 C106.155746,57.8526769 109.130383,58.88 112.442399,58.88 C114.957078,58.88 116.919725,58.6500023 118.330399,58.19 C119.741073,57.7299977 120.860395,57.2393359 121.688399,56.718 C122.516403,56.1966641 123.083731,55.8440009 123.390399,55.66 C124.494405,55.1079972 125.537061,54.832 126.518399,54.832 C127.806406,54.832 128.910395,55.2919954 129.830399,56.212 C130.750404,57.1320046 131.210399,58.2053272 131.210399,59.432 C131.210399,61.0880083 130.351741,62.5906599 128.634399,63.94 C126.917057,65.3506737 124.61708,66.5466618 121.734399,67.528 C118.851718,68.5093382 115.938414,69 112.994399,69 C107.842373,69 103.349752,67.9266774 99.5163991,65.78 C95.6830466,63.6333226 92.7237429,60.6740189 90.6383991,56.902 C88.5530554,53.1299811 87.5103991,48.8826903 87.5103991,44.16 C87.5103991,38.885307 88.6143881,34.2546866 90.8223991,30.268 C93.0304102,26.2813134 95.9437144,23.2300106 99.5623991,21.114 C103.181084,18.9979894 107.045045,17.94 111.154399,17.94 C115.202419,17.94 119.020381,19.043989 122.608399,21.252 C126.196417,23.460011 129.063722,26.434648 131.210399,30.176 C133.357077,33.917352 134.430399,37.9653116 134.430399,42.32 C134.369065,43.7920074 133.786405,44.9879954 132.682399,45.908 Z M98.5503991,38.088 L122.654399,38.088 L122.654399,37.444 C122.409065,34.8679871 121.151744,32.6600092 118.882399,30.82 C116.613054,28.9799908 114.03708,28.06 111.154399,28.06 C104.039697,28.06 99.8384056,31.4026332 98.5503991,38.088 Z M191.203599,45.908 C190.099593,46.8280046 188.811606,47.288 187.339599,47.288 L156.979599,47.288 C157.715602,50.9066848 159.402252,53.7433231 162.039599,55.798 C164.676945,57.8526769 167.651582,58.88 170.963599,58.88 C173.478278,58.88 175.440925,58.6500023 176.851599,58.19 C178.262272,57.7299977 179.381595,57.2393359 180.209599,56.718 C181.037603,56.1966641 181.604931,55.8440009 181.911599,55.66 C183.015604,55.1079972 184.05826,54.832 185.039599,54.832 C186.327605,54.832 187.431594,55.2919954 188.351599,56.212 C189.271603,57.1320046 189.731599,58.2053272 189.731599,59.432 C189.731599,61.0880083 188.872941,62.5906599 187.155599,63.94 C185.438257,65.3506737 183.13828,66.5466618 180.255599,67.528 C177.372918,68.5093382 174.459613,69 171.515599,69 C166.363573,69 161.870951,67.9266774 158.037599,65.78 C154.204246,63.6333226 151.244942,60.6740189 149.159599,56.902 C147.074255,53.1299811 146.031599,48.8826903 146.031599,44.16 C146.031599,38.885307 147.135588,34.2546866 149.343599,30.268 C151.55161,26.2813134 154.464914,23.2300106 158.083599,21.114 C161.702283,18.9979894 165.566245,17.94 169.675599,17.94 C173.723619,17.94 177.541581,19.043989 181.129599,21.252 C184.717617,23.460011 187.584921,26.434648 189.731599,30.176 C191.878276,33.917352 192.951599,37.9653116 192.951599,42.32 C192.890265,43.7920074 192.307604,44.9879954 191.203599,45.908 Z M157.071599,38.088 L181.175599,38.088 L181.175599,37.444 C180.930264,34.8679871 179.672943,32.6600092 177.403599,30.82 C175.134254,28.9799908 172.55828,28.06 169.675599,28.06 C162.560896,28.06 158.359605,31.4026332 157.071599,38.088 Z M251.104798,1.564 C252.14747,2.60667188 252.668798,3.95599172 252.668798,5.612 L252.668798,62.468 C252.668798,64.0626746 252.14747,65.3966613 251.104798,66.47 C250.062126,67.5433387 248.743473,68.08 247.148798,68.08 C245.554124,68.08 244.250803,67.5586719 243.238798,66.516 C242.226793,65.4733281 241.690132,64.1546746 241.628798,62.56 C240.095457,64.3386756 238.025478,65.8566604 235.418798,67.114 C232.812119,68.3713396 230.067479,69 227.184798,69 C222.952777,69 219.119482,67.9113442 215.684798,65.734 C212.250114,63.5566558 209.536142,60.5360193 207.542798,56.672 C205.549455,52.8079807 204.552798,48.4226912 204.552798,43.516 C204.552798,38.6093088 205.534122,34.2086861 207.496798,30.314 C209.459475,26.4193139 212.142781,23.3833442 215.546798,21.206 C218.950815,19.0286558 222.707444,17.94 226.816798,17.94 C229.760813,17.94 232.520785,18.4766613 235.096798,19.55 C237.672811,20.6233387 239.850123,21.9879917 241.628798,23.644 L241.628798,5.612 C241.628798,4.01732536 242.150126,2.6833387 243.192798,1.61 C244.23547,0.5366613 245.554124,0 247.148798,0 C248.743473,0 250.062126,0.52132812 251.104798,1.564 Z M238.316798,54.51 C240.831478,51.5966521 242.088798,47.9320221 242.088798,43.516 C242.088798,39.0999779 240.831478,35.4200147 238.316798,32.476 C235.802119,29.5319853 232.551485,28.06 228.564798,28.06 C224.639445,28.06 221.419478,29.5319853 218.904798,32.476 C216.390119,35.4200147 215.132798,39.0999779 215.132798,43.516 C215.132798,47.9320221 216.374786,51.5966521 218.858798,54.51 C221.342811,57.4233479 224.578112,58.88 228.564798,58.88 C232.551485,58.88 235.802119,57.4233479 238.316798,54.51 Z M310.269998,20.47 C311.31267,21.5433387 311.833998,22.8773254 311.833998,24.472 L311.833998,63.572 C311.833998,71.5453732 309.687353,77.3566484 305.393998,81.006 C301.100643,84.6553516 295.366034,86.48 288.189998,86.48 C286.104654,86.48 283.973342,86.311335 281.795998,85.974 C279.618654,85.636665 277.855338,85.1920028 276.505998,84.64 C273.500649,83.3519936 271.997998,81.5733447 271.997998,79.304 C271.997998,78.8746645 272.089997,78.3840028 272.273998,77.832 C272.642,76.4826599 273.27066,75.4553369 274.159998,74.75 C275.049336,74.0446631 276.015326,73.692 277.057998,73.692 C277.671334,73.692 278.253995,73.7839991 278.805998,73.968 C279.235333,74.1520009 279.986659,74.4586645 281.059998,74.888 C282.133337,75.3173355 283.267992,75.6699986 284.463998,75.946 C285.660004,76.2220014 286.901991,76.36 288.189998,76.36 C292.544686,76.36 295.749321,75.424676 297.803998,73.554 C299.858675,71.683324 300.885998,68.4786894 300.885998,63.94 L300.885998,63.02 C297.696649,67.0066866 292.728698,69 285.981998,69 C282.792649,69 279.971343,68.2486742 277.517998,66.746 C275.064652,65.2433258 273.163338,63.1580133 271.813998,60.49 C270.464658,57.8219867 269.789998,54.7706838 269.789998,51.336 L269.789998,24.472 C269.789998,22.8773254 270.311326,21.5433387 271.353998,20.47 C272.39667,19.3966613 273.715323,18.86 275.309998,18.86 C276.904672,18.86 278.223326,19.3966613 279.265998,20.47 C280.30867,21.5433387 280.829998,22.8773254 280.829998,24.472 L280.829998,48.024 C280.829998,51.8880193 281.673323,54.6633249 283.359998,56.35 C285.046673,58.0366751 287.515315,58.88 290.765998,58.88 C293.955347,58.88 296.423989,57.944676 298.171998,56.074 C299.920007,54.203324 300.793998,51.5200175 300.793998,48.024 L300.793998,24.472 C300.793998,22.8773254 301.315326,21.5433387 302.357998,20.47 C303.40067,19.3966613 304.719323,18.86 306.313998,18.86 C307.908672,18.86 309.227326,19.3966613 310.269998,20.47 Z" id="ipeedy"></path>
                </g>
            </g>
        </g>
    </g>
</svg>