<svg width="79" height="16" viewBox="-2 0 79 16" xml:space="preserve" xmlns="http://www.w3.org/2000/svg" preserveAspectRatio="xMidYMid">
<title>REALas logo</title>
<path stroke="none" fill="#fff" d="M0 0.5h6.1c3.1 0 5.2 2 5.2 4.8C11.3 8 10 9.5 7.9 10l4 5.6H7.3L3.6 10v5.7H0V0.5zM6.5 7.1c0.8 0 1.3-0.9 1.3-1.7 0-0.9-0.6-1.7-1.4-1.7H3.6v3.4H6.5z">
</path>
<path stroke="none" fill="#fff" d="M13.3 0.5H23v3.3h-6.1v2.7h5.6v3.2h-5.6v2.7h6.4v3.2h-10V0.5z">
</path>
<path stroke="none" fill="#fff" d="M31.3 0h0.6l7.2 15.7h-3.9l-0.7-1.6h-5.8L28 15.7h-3.9L31.3 0zM33.3 11.4l-1.7-3.8h0l-1.7 3.8H33.3z">
</path>
<path stroke="none" fill="#fff" d="M40.2 0.5h3.6v12h6.4v3.2h-10V0.5z">
</path>
<path stroke="none" fill="#FC20E3" d="M61.3 2.2h3.3v13.4h-3.3v-1.4c-0.6 0.6-1.3 1.1-1.9 1.4C58.7 15.9 58 16 57.3 16c-1.7 0-3.1-0.7-4.3-2 -1.2-1.3-1.8-3-1.8-5 0-2.1 0.6-3.8 1.8-5.1 1.2-1.3 2.6-2 4.3-2 0.8 0 1.5 0.2 2.2 0.5 0.7 0.3 1.3 0.8 1.9 1.4V2.2zM57.8 5c-1 0-1.8 0.4-2.5 1.1 -0.7 0.7-1 1.7-1 2.8 0 1.2 0.3 2.1 1 2.9 0.7 0.7 1.5 1.1 2.5 1.1 1 0 1.9-0.4 2.5-1.1 0.7-0.7 1-1.7 1-2.9 0-1.2-0.3-2.1-1-2.8C59.7 5.4 58.9 5 57.8 5z">
</path>
<path stroke="none" fill="#FC20E3" d="M74.8 4.1l-2 2.1c-0.8-0.8-1.6-1.3-2.2-1.3 -0.4 0-0.7 0.1-0.9 0.2 -0.2 0.2-0.3 0.4-0.3 0.6 0 0.2 0.1 0.3 0.2 0.5 0.1 0.2 0.5 0.4 1 0.6l1.2 0.6c1.3 0.6 2.1 1.3 2.6 2 0.5 0.7 0.7 1.4 0.7 2.3 0 1.2-0.4 2.2-1.3 3 -0.8 0.8-2 1.2-3.4 1.2 -1.9 0-3.4-0.8-4.5-2.3l2-2.3c0.4 0.5 0.8 0.8 1.3 1.1 0.5 0.3 1 0.4 1.4 0.4 0.4 0 0.8-0.1 1-0.3 0.3-0.2 0.4-0.5 0.4-0.7 0-0.5-0.5-1-1.4-1.5l-1.1-0.6c-2.1-1.1-3.1-2.5-3.1-4.1 0-1.1 0.4-2 1.2-2.7 0.8-0.8 1.8-1.1 3-1.1 0.8 0 1.6 0.2 2.4 0.6C73.6 2.9 74.2 3.4 74.8 4.1z">
</path>
</svg>