<svg xmlns="http://www.w3.org/2000/svg" viewBox="0 0 100 100">
<path d="M3.4 67.3L5 60.3l-1.6-7.2c0-0.2-0.5-0.4-1-0.4 -0.5 0-0.9 0.2-1 0.4L0 60.3l1.4 7c0 0.2 0.5 0.4 1 0.4C2.9 67.7 3.3 67.5 3.4 67.3zM13.6 71.2L15 60.3l-1.4-16.7c0-0.4-0.6-0.8-1.2-0.8 -0.6 0-1.2 0.3-1.2 0.8L10 60.3l1.2 10.8c0 0.4 0.6 0.8 1.2 0.8C13.1 71.9 13.6 71.6 13.6 71.2zM23.8 71L25 60.4l-1.2-22.3c0-0.5-0.6-0.9-1.4-0.9 -0.8 0-1.4 0.4-1.4 0.9L20 60.4l1 10.6c0 0.5 0.6 0.9 1.4 0.9C23.2 71.9 23.8 71.5 23.8 71zM34 70.8L35 60.4l-1-22.4c0-0.6-0.7-1.1-1.6-1.1 -0.9 0-1.6 0.5-1.6 1.1L30 60.4l0.9 10.5c0 0.6 0.7 1.1 1.6 1.1C33.3 71.9 34 71.5 34 70.8zM44.2 70.7L45 60.4l-0.8-25.7c0-0.7-0.8-1.3-1.8-1.3 -1 0-1.8 0.6-1.8 1.3L40 60.4c0 0 0.7 10.3 0.7 10.3 0 0.7 0.8 1.3 1.8 1.3C43.4 72 44.2 71.4 44.2 70.7zM51.4 72C51.4 72 86.9 72 87.1 72 94.2 72 100 66.4 100 59.5c0-6.9-5.8-12.5-12.9-12.5 -1.8 0-3.4 0.3-5 1C81.1 36.8 71.4 28 59.5 28c-2.9 0-5.7 0.6-8.2 1.5 -1 0.4-1.2 0.7-1.2 1.5v39.6C50 71.3 50.6 71.9 51.4 72z" fill="currentColor"/>
</svg>
